<svg width="60" height="54" viewBox="0 0 60 54" fill="none" xmlns="http://www.w3.org/2000/svg">
<mask id="mask0_8459_9381" style="mask-type:alpha" maskUnits="userSpaceOnUse" x="0" y="0" width="60" height="54">
<path fill-rule="evenodd" clip-rule="evenodd" d="M58.2936 34.6012C58.6844 34.2117 59.3161 34.2117 59.7069 34.6012C60.0977 34.9907 60.0977 35.6213 59.7069 36.0148L58.2936 37.4235C53.574 42.1277 47.2992 44.7179 40.6245 44.7179C34.3317 44.7179 28.3957 42.4136 23.782 38.2075C23.7662 38.1958 23.7492 38.1864 23.7322 38.1769C23.7075 38.1632 23.6828 38.1495 23.6621 38.1288L22.4117 39.3751L22.2488 39.5375L16.2178 45.5478L17.6311 46.9564L12.6836 51.8878C11.3633 53.2028 9.60716 53.9281 7.7361 53.9281C5.86604 53.9281 4.10793 53.2028 2.78859 51.8878C1.04747 50.1513 0.347825 47.592 0.964514 45.2071C1.24037 44.1441 2.03597 43.3361 3.09644 43.0472C4.14391 42.7623 5.22936 43.0482 5.99898 43.8153C6.77658 44.5904 7.07543 45.6833 6.78058 46.6665C6.67463 47.0202 6.76959 47.4008 7.03046 47.6608C7.42026 48.0503 8.05394 48.0483 8.44374 47.6608L13.3912 42.7294L14.8045 44.1381L15.906 43.0403L15.1993 42.3359C14.8085 41.9464 14.8085 41.3168 15.1993 40.9273C15.5891 40.5377 16.2218 40.5377 16.6126 40.9273L17.3203 41.6316L20.9994 37.9645L22.2498 36.7172C22.2294 36.6968 22.2158 36.6729 22.2022 36.6488C22.1931 36.6328 22.184 36.6167 22.1728 36.6016C17.951 32.003 15.6381 26.0854 15.6381 19.8112C15.6381 13.1583 18.2368 6.90501 22.9564 2.20081L24.3707 0.792144C24.7615 0.402619 25.3932 0.402619 25.784 0.792144C26.1748 1.18167 26.1748 1.81129 25.784 2.20081L24.6426 3.33751C24.5326 5.39174 25.1763 7.23078 26.4906 8.54082C27.805 9.84986 29.653 10.4964 31.71 10.3819L32.8504 9.24515C33.2412 8.85563 33.8729 8.85563 34.2637 9.24515C34.6545 9.63468 34.6545 10.2643 34.2637 10.6538L33.1233 11.7905C33.0134 13.8447 33.657 15.6838 34.9714 16.9938C36.3587 18.3756 38.3377 19.0261 40.5316 18.8189C40.5405 18.8179 40.5486 18.8196 40.5567 18.8213L40.5567 18.8213L40.5568 18.8213L40.5568 18.8213C40.5614 18.8223 40.566 18.8232 40.5708 18.8237L40.5761 18.824L40.5795 18.8239C40.6105 18.8229 40.6395 18.8229 40.6705 18.8239C40.6786 18.8244 40.686 18.8228 40.6933 18.8213C40.7015 18.8196 40.7096 18.8179 40.7185 18.8189C40.7387 18.8206 40.7567 18.8276 40.7749 18.8347C40.789 18.8402 40.8031 18.8458 40.8184 18.8488C40.8237 18.8498 40.8291 18.8508 40.8344 18.8517C40.843 18.8532 40.8515 18.8547 40.8601 18.8561L40.8602 18.8561L40.8602 18.8561L40.8603 18.8561L40.8604 18.8561L40.8604 18.8561L40.8605 18.8561C40.8983 18.8624 40.9356 18.8686 40.9713 18.8817C40.9891 18.8878 41.0055 18.8963 41.022 18.9048L41.0221 18.9049L41.0354 18.9117L41.0453 18.9166C41.0841 18.9341 41.1183 18.9564 41.1533 18.9792L41.1533 18.9792L41.1672 18.9883L41.1749 18.9932C41.2201 19.0223 41.2634 19.0501 41.3032 19.0869C41.3059 19.0893 41.3088 19.0912 41.3118 19.0929L41.3167 19.0955C41.322 19.0983 41.3274 19.1011 41.3322 19.1058C41.3378 19.112 41.3416 19.1189 41.3453 19.1257C41.3488 19.1321 41.3523 19.1384 41.3571 19.1437C41.3828 19.1718 41.4037 19.2026 41.4249 19.2339L41.4381 19.2533L41.441 19.2575C41.472 19.3018 41.5018 19.3445 41.5251 19.3947C41.5381 19.4216 41.5501 19.4465 41.56 19.4744C41.5709 19.5049 41.5762 19.5362 41.5817 19.5682C41.5842 19.5833 41.5868 19.5986 41.59 19.6139C41.5934 19.6288 41.5988 19.6427 41.6042 19.6566L41.6042 19.6566C41.6117 19.6761 41.6193 19.6954 41.621 19.7175C41.6215 19.7249 41.62 19.732 41.6186 19.7393C41.6178 19.7429 41.6171 19.7465 41.6166 19.7502L41.6161 19.7545C41.6159 19.7571 41.6158 19.7597 41.616 19.7624C41.618 19.7942 41.618 19.8251 41.616 19.857C41.6158 19.8595 41.6159 19.862 41.6161 19.8644C41.6164 19.8674 41.6168 19.8704 41.6174 19.8733L41.6185 19.8788C41.62 19.8862 41.6215 19.8938 41.621 19.9018C41.4151 22.0935 42.0658 24.0621 43.4531 25.4448C44.7674 26.7539 46.6135 27.3975 48.6725 27.2859L49.8129 26.1482C50.2037 25.7587 50.8364 25.7587 51.2272 26.1482C51.617 26.5367 51.617 27.1673 51.2272 27.5569L50.0857 28.6945C49.9758 30.7488 50.6195 32.5868 51.9328 33.8969C53.2472 35.2059 55.0942 35.8525 57.1532 35.7379L58.2936 34.6012ZM7.7371 51.9316C9.07442 51.9316 10.3288 51.4136 11.2713 50.4751L14.8035 46.9524L13.3892 45.5438L9.85503 49.0664C8.68662 50.231 6.78458 50.232 5.61517 49.0664C4.83456 48.2874 4.54671 47.1477 4.86555 46.0907C4.94851 45.8158 4.83756 45.474 4.58469 45.221C4.35181 44.9889 4.09494 44.9301 3.89504 44.9301C3.78009 44.9301 3.68414 44.949 3.62317 44.966C3.26435 45.0626 2.99449 45.3386 2.90054 45.7012C2.45976 47.4057 2.95851 49.2348 4.20288 50.4751C5.14541 51.4136 6.40077 51.9316 7.7371 51.9316ZM42.0388 26.8535C43.2922 28.1028 44.8964 28.8888 46.6895 29.1737C39.0183 36.0447 30.2507 38.9836 25.3202 36.4711L39.702 22.1374C39.9778 23.9565 40.7664 25.5853 42.0388 26.8535ZM38.2867 20.7307C36.4616 20.4557 34.8294 19.6667 33.5581 18.3995C32.3027 17.1492 31.5191 15.5483 31.2333 13.7591C24.3357 21.4061 21.3872 30.1471 23.9069 35.0625L38.2867 20.7307ZM22.7655 5.38476C23.0624 7.14112 23.841 8.71416 25.0764 9.9465C26.3657 11.2316 28.0259 12.0246 29.8819 12.2876C23.882 18.8717 20.7186 26.1751 21.0534 31.7948C18.8415 28.2213 17.6361 24.1109 17.6361 19.8072C17.6371 14.4913 19.4452 9.45436 22.7655 5.38476ZM28.6263 39.3315L28.6236 39.3313C32.2028 41.525 36.3177 42.7205 40.6255 42.7215C45.9558 42.7215 51.0073 40.9203 55.0882 37.6148C53.3271 37.3189 51.7539 36.5359 50.5195 35.3055C49.2302 34.0204 48.4366 32.3657 48.1717 30.5167C41.8809 36.2101 34.9274 39.3612 29.4092 39.3612C29.1432 39.3612 28.8852 39.3463 28.6263 39.3315ZM3.99798 19.7972H0.999496C0.447774 19.7972 0 20.2425 0 20.7934C0 21.3444 0.447774 21.7897 0.999496 21.7897H3.99798C7.40727 21.7897 10.0779 19.2104 10.0779 15.9169V14.838C10.0779 12.2827 8.23885 10.1457 5.80108 9.8678C5.13341 9.78909 4.46775 9.84787 3.81907 10.0391C1.16941 10.8152 -0.352822 13.5957 0.426785 16.2367C0.582706 16.7647 1.13843 17.0715 1.66816 16.9111C2.19789 16.7567 2.50074 16.2028 2.34482 15.6748C1.87705 14.0878 2.79059 12.4162 4.38279 11.9499C4.77259 11.8354 5.17139 11.8015 5.57319 11.8463C6.97848 12.0067 8.07893 13.3207 8.07893 14.838V15.9169C8.07893 18.1295 6.32481 19.7972 3.99798 19.7972ZM8.99546 29.7595H0.999496C0.447774 29.7595 0 29.3142 0 28.7633C0 28.2124 0.447774 27.7671 0.999496 27.7671H8.99546C9.54719 27.7671 9.99496 28.2124 9.99496 28.7633C9.99496 29.3142 9.54719 29.7595 8.99546 29.7595ZM0.999496 25.7965H3.976C8.70361 25.7965 13.9929 21.9531 13.9929 16.8085C13.9929 16.2576 13.5452 15.8123 12.9934 15.8123C12.4417 15.8123 11.994 16.2576 11.994 16.8085C11.994 20.7486 7.68313 23.8041 3.976 23.8041H0.999496C0.447774 23.8041 0 24.2494 0 24.8003C0 25.3512 0.447774 25.7965 0.999496 25.7965ZM4.97549 32.7482C4.97549 33.2991 4.52772 33.7444 3.976 33.7444H0.999496C0.447774 33.7444 0 33.2991 0 32.7482C0 32.1973 0.447774 31.752 0.999496 31.752H3.976C4.52772 31.752 4.97549 32.1973 4.97549 32.7482Z" fill="white"/>
</mask>
<g mask="url(#mask0_8459_9381)">
<rect x="-4.01697" y="-9.1875" width="71.5" height="72.5" fill="#00C5CA"/>
</g>
</svg>
