<svg width="60" height="60" viewBox="0 0 60 60" fill="none" xmlns="http://www.w3.org/2000/svg">
<mask id="mask0_7479_107051" style="mask-type:alpha" maskUnits="userSpaceOnUse" x="0" y="0" width="60" height="60">
<path fill-rule="evenodd" clip-rule="evenodd" d="M29.9786 0.253906C13.5737 0.253906 0.226562 13.6011 0.226562 30.006C0.226562 46.4109 13.5737 59.758 29.9786 59.758C46.3835 59.758 59.7307 46.4109 59.7307 30.006C59.7307 13.6011 46.3835 0.253906 29.9786 0.253906ZM29.9786 56.7853C15.2118 56.7853 3.19934 44.7728 3.19934 30.006C3.19934 15.2391 15.2118 3.22669 29.9786 3.22669C44.7455 3.22669 56.7579 15.2391 56.7579 30.006C56.7579 44.7728 44.7455 56.7853 29.9786 56.7853ZM26.3628 34.1072L37.7685 22.7621C38.3509 22.1797 39.2853 22.1797 39.8677 22.7621C40.438 23.3445 40.438 24.2788 39.8555 24.8612L27.3941 37.2498C27.1029 37.5411 26.7268 37.6867 26.3506 37.6867C25.9623 37.6867 25.5862 37.5411 25.295 37.2498L20.0896 32.008C19.5193 31.4256 19.5193 30.4792 20.1017 29.9089C20.6841 29.3386 21.6184 29.3386 22.2009 29.921L26.3628 34.1072Z" fill="white"/>
</mask>
<g mask="url(#mask0_7479_107051)">
<rect x="-4.46289" y="-11.9004" width="72.3967" height="76.3636" fill="#00C5CA"/>
</g>
</svg>
