<svg width="32" height="32" viewBox="0 0 32 32" fill="none" xmlns="http://www.w3.org/2000/svg">
    <path d="M9.64941 12.8142H22.0134V16.2347H9.64941V12.8142V12.8142V12.8142Z" fill="#D90912"/>
    <path d="M14.1338 6.88354H17.6015V22.592L15.864 23.1964L14.1338 22.592V6.88354V6.88354V6.88354Z" fill="#D90912"/>
    <path d="M7.00398 5.2622C7.44312 6.07798 7.37898 7.06818 6.83817 7.8222C6.64155 8.11909 6.39818 8.38315 6.11724 8.60442C5.59193 9.02513 5.16003 9.54798 4.8484 10.1404V10.1404V10.1404C4.97726 9.57682 5.16074 9.02673 5.39631 8.49776C5.68234 7.89735 6.01496 7.31964 6.39119 6.76976C6.44517 6.65419 6.46033 6.52464 6.43445 6.39998C6.43445 6.39998 6.39119 6.39998 6.35514 6.39998C6.1347 6.58686 5.94071 6.80212 5.7784 7.03998C5.48656 7.42325 5.2239 7.82732 4.99259 8.24887V8.24887V8.24887C4.75196 8.75174 4.55889 9.27544 4.41584 9.81331V9.89153C4.37259 9.45064 4.15631 9.07376 4.09863 8.63287C4.26708 7.63918 4.81375 6.74641 5.627 6.13687C6.03723 5.85367 6.3733 5.47831 6.60747 5.04176C6.64516 4.99428 6.70546 4.96995 6.76607 4.97776C6.86651 5.04437 6.94833 5.13486 7.00398 5.24087V5.2622Z" fill="#007859"/>
    <path d="M3.80305 7.03998C3.85352 7.1182 3.80305 7.20353 3.80305 7.29598C3.55897 8.13717 3.60204 9.03419 3.92561 9.84887C4.08233 10.4563 4.09712 11.091 3.96887 11.7049C3.96887 11.7049 3.92561 11.7049 3.9184 11.7049C3.85234 11.6003 3.7945 11.491 3.74538 11.3778C3.36115 10.784 3.11495 10.1138 3.02445 9.41509C2.98119 9.1022 3.07491 8.79642 3.02445 8.49776C3.01555 8.46944 2.99791 8.44458 2.97398 8.42664C2.87305 8.42664 2.85863 8.53331 2.80817 8.5902C2.43328 9.67109 2.93073 10.7235 3.4498 11.6053C3.58468 11.8316 3.6981 12.0696 3.78863 12.3164C4.12361 13.0041 4.26551 13.7678 4.19956 14.528C4.18636 14.6712 4.15487 14.8121 4.10584 14.9475V14.9475C3.98249 14.626 3.76396 14.3485 3.47863 14.1511L3.34887 14.1013C3.31712 13.7383 3.2421 13.3803 3.12538 13.0346C2.93073 12.2738 2.4477 11.6764 2.18817 10.9369C2.18817 10.9369 2.18817 10.9369 2.18817 10.8729C1.95428 10.2879 1.88697 9.65104 1.99352 9.03109C2.15123 8.23147 2.64328 7.53443 3.34887 7.11109C3.47863 7.06842 3.6877 6.91198 3.80305 7.11109V7.03998Z" fill="#007859"/>
    <path d="M7.42195 8.6329C7.6956 9.57352 7.51477 10.586 6.93172 11.3778C6.528 12.0178 5.82869 12.3876 5.31683 12.9422C5.03956 13.1862 4.79704 13.4661 4.5959 13.7742C4.5959 13.7742 4.5959 13.6676 4.5959 13.6107C4.57398 13.3698 4.5281 13.1316 4.45893 12.8996C4.52099 12.8288 4.57648 12.7526 4.62474 12.672C5.14381 11.9609 5.93683 11.5769 6.38381 10.8516C6.61088 10.5525 6.7684 10.2077 6.8452 9.84179C6.8452 9.7849 6.8452 9.71379 6.78753 9.67824C6.72986 9.64268 6.6073 9.81335 6.5352 9.89157C6.17575 10.5362 5.68481 11.1003 5.09334 11.5485C4.78012 11.8102 4.50588 12.1143 4.27869 12.4516H4.27148C4.27148 12.3449 4.27148 12.224 4.27148 12.1173C4.52389 10.9022 5.25514 9.83558 6.30451 9.15201C6.59156 8.9231 6.81278 8.62398 6.94613 8.28446C6.94613 8.28446 6.9966 8.20624 7.04707 8.21335C7.24893 8.21335 7.3066 8.46224 7.3859 8.62579L7.42195 8.6329Z" fill="#007859"/>
    <path d="M1.89257 11.3067C1.93375 11.3679 1.95627 11.4394 1.95746 11.5129C2.01556 12.1097 2.17138 12.6933 2.41885 13.2409C2.44103 13.2737 2.45805 13.3097 2.46932 13.3476C2.79877 13.8816 3.09025 14.4376 3.34164 15.0116C3.40653 15.1538 3.44257 15.3031 3.49304 15.4524C3.59183 15.7447 3.6524 16.0482 3.67327 16.3556V16.3556C3.17583 15.9259 2.72191 15.4496 2.31792 14.9333C2.03062 14.4882 1.83921 13.9896 1.7556 13.4684C1.73382 13.3056 1.70253 13.1442 1.66188 12.9849C1.63989 12.9383 1.60488 12.8988 1.56095 12.8711C1.45281 12.8711 1.46002 13.0347 1.42397 13.12C1.3879 13.5744 1.44428 14.0314 1.58978 14.464C1.64025 14.5493 1.65467 14.656 1.70513 14.7484C1.99588 15.3681 2.42468 15.915 2.95955 16.3484C3.30387 16.6648 3.6088 17.0205 3.86792 17.408C3.70981 17.7136 3.57953 18.0325 3.47862 18.3609V18.3609C3.35606 18.1547 3.21909 17.9484 3.08211 17.7493C2.64242 17.1792 2.16047 16.642 1.64025 16.1422C1.01367 15.4297 0.668177 14.5184 0.666992 13.5751C0.669673 12.7556 0.992423 11.9686 1.56815 11.3778C1.64025 11.2853 1.79164 11.2 1.89257 11.2924V11.3067Z" fill="#007859"/>
    <path d="M7.15563 12.4515C7.25656 12.5724 7.15563 12.7217 7.15563 12.8497C6.90331 13.4826 7.0547 14.272 6.80238 14.8977C6.45398 15.7628 5.96718 16.567 5.36052 17.28C5.31726 17.3866 5.22354 17.472 5.17308 17.5929C4.88478 18.1015 4.71717 18.668 4.68284 19.2497V19.2497C4.51952 18.9825 4.26332 18.7828 3.96191 18.688C3.96191 18.688 3.96191 18.6169 3.96191 18.5813C4.19152 17.8273 4.56329 17.1229 5.05773 16.5049C5.6945 15.7873 6.12073 14.9121 6.29052 13.9733C6.29052 13.8666 6.29052 13.7457 6.21843 13.6889C6.14633 13.632 6.03819 13.8737 5.99494 13.9804C5.88234 14.3088 5.74249 14.6275 5.5768 14.9333C5.41098 15.168 5.28122 15.424 5.10098 15.6444C4.81261 16.064 4.43052 16.4409 4.14936 16.8746V16.8746C4.10359 15.3801 4.77073 13.9508 5.95168 13.0133C6.2117 12.7935 6.49727 12.6049 6.80238 12.4515C6.90331 12.4515 7.02587 12.3804 7.1268 12.4515H7.15563Z" fill="#007859"/>
    <path d="M1.61115 16.7467C1.99218 17.5458 2.58188 18.2305 3.31975 18.7307C3.9743 19.2442 4.48747 19.9117 4.81208 20.672C4.81208 20.672 4.74719 20.672 4.71836 20.672C3.58437 20.2619 2.61899 19.4946 1.97161 18.4889C1.89952 18.3893 1.85626 18.2684 1.71929 18.24C1.58231 18.2115 1.66882 18.3964 1.67603 18.4675C1.87343 19.1011 2.27933 19.6516 2.82952 20.032C3.55045 20.6364 4.50929 20.8569 5.25905 21.4542C5.74602 21.7866 6.15227 22.2213 6.44859 22.7271L6.43417 22.7555C6.30634 22.6913 6.17065 22.6435 6.03045 22.6133C5.83969 22.559 5.63725 22.559 5.44649 22.6133V22.6133C5.10643 22.2579 4.70943 21.96 4.27138 21.7315C4.06919 21.6079 3.85699 21.5008 3.63696 21.4115C3.19339 21.2255 2.77454 20.9867 2.38975 20.7004C1.33605 19.9165 0.831508 18.606 1.09208 17.3298C1.11502 17.0877 1.20479 16.8566 1.35161 16.6613C1.39622 16.6359 1.45119 16.6359 1.4958 16.6613C1.54719 16.6959 1.58926 16.7422 1.61835 16.7964L1.61115 16.7467Z" fill="#007859"/>
    <path d="M7.01794 16.7467C7.34047 17.7833 7.23152 18.904 6.71515 19.8613C6.41005 20.4318 6.268 21.0733 6.30422 21.7173C6.2277 21.6637 6.15757 21.6016 6.09515 21.5324C5.92934 21.3973 5.75632 21.248 5.56887 21.12C5.59211 21.0481 5.60899 20.9743 5.61934 20.8995C5.66055 20.6899 5.72336 20.485 5.80678 20.288C5.83204 20.1928 5.86582 20.1 5.90771 20.0107C6.04469 19.6764 6.23213 19.3635 6.3619 19.0222C6.56682 18.6076 6.64449 18.1429 6.58539 17.6853C6.57432 17.6639 6.55665 17.6465 6.53492 17.6355C6.44841 17.6355 6.42678 17.7209 6.38353 17.7707C6.27509 18.1783 6.13034 18.5757 5.95097 18.9582C5.62671 19.4763 5.38365 20.0396 5.23004 20.6293C5.23004 20.6293 5.23004 20.6293 5.23004 20.5795C5.11936 20.2439 5.05865 19.8942 5.0498 19.5413C5.06327 18.8082 5.33325 18.1023 5.81399 17.5431C6.11072 17.1622 6.32205 16.7235 6.43399 16.256C6.45702 16.2086 6.4987 16.1727 6.54934 16.1564C6.81608 16.2133 6.92422 16.5191 7.01073 16.7395L7.01794 16.7467Z" fill="#007859"/>
    <path d="M3.16116 21.6889C3.71529 22.1839 4.3617 22.5679 5.06442 22.8195C5.31178 22.91 5.55264 23.0169 5.78535 23.1395C5.84901 23.163 5.90953 23.194 5.96558 23.232C6.30083 23.4382 6.61474 23.6764 6.90279 23.9431C6.96891 24.009 7.02921 24.0804 7.08302 24.1564C6.86674 24.1564 6.63604 24.0924 6.41256 24.0853C6.35985 24.0911 6.30666 24.0911 6.25395 24.0853C5.42507 23.9807 4.64936 23.6255 4.03349 23.0684C3.94697 23.0186 3.86767 22.9333 3.75232 22.9618C3.63697 22.9902 3.75232 23.1609 3.82442 23.2533C4.436 23.9617 5.30113 24.41 6.23953 24.5049C6.75031 24.5566 7.25487 24.6567 7.74628 24.8035C7.78953 24.8035 7.74628 24.8746 7.78953 24.9102C7.87829 25.1953 7.99416 25.4715 8.13558 25.7351C8.09989 25.7554 8.05592 25.7554 8.02023 25.7351C7.35299 25.5081 6.66482 25.3462 5.96558 25.2515C5.67902 25.1967 5.39706 25.1206 5.12209 25.024C4.30983 24.7088 3.6291 24.1325 3.19 23.3884C2.95368 22.975 2.80872 22.517 2.76465 22.0444C2.76465 21.8738 2.76465 21.6533 2.88721 21.5609C3.00976 21.4684 3.08907 21.632 3.16116 21.7031V21.6889Z" fill="#007859"/>
    <path d="M7.74612 19.7689C7.79514 19.9507 7.8289 20.1362 7.84705 20.3235C7.98402 20.8924 8.36612 21.3689 8.46705 21.9449C8.6617 22.8053 8.69775 23.7226 8.93565 24.5618C9.07043 25.021 9.27982 25.4557 9.55565 25.8489C9.34957 25.7773 9.13252 25.7412 8.91402 25.7422C8.83072 25.7499 8.74853 25.7666 8.66891 25.792C8.12442 24.8408 7.85044 23.7622 7.87589 22.6702C7.82423 22.2197 7.74235 21.7731 7.63077 21.3333C7.60996 21.2511 7.56478 21.1768 7.501 21.12C7.39286 21.12 7.40728 21.2195 7.36402 21.2764C7.37252 21.8169 7.41828 22.3563 7.501 22.8906C7.55147 23.296 7.501 23.7226 7.58751 24.1209C7.56527 24.1074 7.54768 24.0875 7.53705 24.064C7.45867 23.9859 7.38861 23.9001 7.32798 23.808C6.84691 23.1256 6.63186 22.2948 6.7224 21.4684C6.76976 21.1455 6.85193 20.8284 6.96751 20.5226C6.96751 20.5226 6.96751 20.4658 7.01077 20.4302C7.12933 20.1806 7.29581 19.956 7.501 19.7689C7.56589 19.7262 7.70286 19.6906 7.74612 19.7689V19.7689Z" fill="#007859"/>
    <path d="M6.85298 25.8418C7.42531 26.041 8.0268 26.1467 8.63368 26.1547C9.28626 26.2146 9.91328 26.4346 10.4576 26.7947V26.7947C9.48437 26.7236 8.44623 26.9725 7.57391 26.6098C7.49461 26.6098 7.39368 26.5316 7.31437 26.6098C7.23507 26.688 7.31437 26.6098 7.31437 26.6667C7.42625 26.7991 7.57001 26.9018 7.73251 26.9653C8.36277 27.1757 9.03185 27.2485 9.69344 27.1787C10.6653 27.138 11.6327 27.3308 12.5123 27.7405V27.7405C12.0984 27.823 11.6947 27.9493 11.3083 28.1173C10.7774 27.9921 10.2319 27.9371 9.68623 27.9538C9.59018 27.9588 9.49392 27.9588 9.39786 27.9538C9.17437 27.9538 8.9581 27.9111 8.73461 27.904C8.51187 27.8668 8.29249 27.8121 8.07856 27.7405C7.21145 27.4574 6.50502 26.8277 6.13205 26.0053C6.0914 25.8878 6.0914 25.7602 6.13205 25.6427C6.15254 25.6062 6.18589 25.5784 6.22577 25.5645C6.47576 25.6334 6.71747 25.7288 6.9467 25.8489L6.85298 25.8418Z" fill="#007859"/>
    <path d="M9.61374 23.1396C10.4541 23.3754 11.1408 23.9742 11.4809 24.768C11.9316 25.8011 12.6502 26.6988 13.5644 27.3707C13.6182 27.393 13.6691 27.4216 13.7158 27.456C13.7158 27.456 13.6365 27.4987 13.5789 27.4987C12.6719 27.5423 11.834 27.0225 11.4809 26.1974C11.2286 25.7422 11.034 25.2587 10.76 24.8249C10.612 24.5579 10.405 24.327 10.1544 24.1494C10.1224 24.1501 10.094 24.1697 10.0823 24.1991C10.0952 24.3286 10.1397 24.4531 10.2121 24.5618C10.6807 25.216 10.8393 26.0551 11.3584 26.6951V26.6951C10.636 26.4691 10.0608 25.9254 9.80118 25.2231C9.63993 24.5709 9.42288 23.9334 9.15234 23.3174C9.15234 23.2605 9.15234 23.1822 9.15234 23.1396C9.15234 23.0969 9.44793 23.0898 9.59211 23.1396V23.1396H9.61374Z" fill="#007859"/>
    <path d="M24.9259 23.1253C24.9259 23.0115 24.9259 22.8764 24.9259 22.7626C24.9888 22.7716 25.0517 22.7473 25.0917 22.6986C25.3945 22.3146 25.1927 21.7315 25.4306 21.3333C25.4797 21.2145 25.5961 21.1361 25.7261 21.1342C25.9023 21.2064 26.0423 21.3444 26.1155 21.5182C26.1155 21.5964 26.1875 21.696 26.2813 21.7173C26.5624 21.568 26.6201 21.2338 26.7138 20.9635C26.7667 20.7438 26.8466 20.5313 26.9517 20.3306C27.0179 20.2018 27.1313 20.1027 27.2689 20.0533C27.2689 20.0533 27.3338 20.0533 27.3555 20.0533C27.4945 20.1171 27.5801 20.2579 27.5717 20.4089C27.5872 20.4572 27.6207 20.4979 27.6655 20.5226C27.8385 20.5226 27.9322 20.3875 28.0403 20.2951C28.2187 19.8876 28.5649 19.5746 28.992 19.4346C29.1234 19.4121 29.2561 19.4678 29.3308 19.5769C29.5255 19.9324 29.3308 20.288 29.1938 20.6364C29.1534 20.7221 29.1534 20.821 29.1938 20.9066C29.2948 20.9066 29.4173 20.9066 29.5327 20.9493C29.6137 20.9813 29.6695 21.0556 29.6768 21.1413C29.6336 21.5253 29.2731 21.7529 28.992 21.9378C28.746 22.0493 28.529 22.2146 28.3575 22.4213C28.3546 22.4568 28.3546 22.4925 28.3575 22.528C28.4008 22.5849 28.4657 22.5706 28.5234 22.5991C28.6456 22.6026 28.7537 22.6784 28.7973 22.7911C28.7973 23.0186 28.5955 23.1324 28.4585 23.2462C28.1349 23.3994 27.7968 23.5208 27.4492 23.6089C27.2777 23.6675 27.124 23.7678 27.0022 23.9004C27.0022 23.9004 27.0022 23.9858 27.0022 24.0213C27.0022 24.0569 27.2834 24.064 27.4059 24.128C27.5285 24.192 27.6727 24.2346 27.6871 24.384C27.6871 24.6471 27.3771 24.768 27.1536 24.8533H27.0527C26.9635 24.8814 26.8717 24.9005 26.7787 24.9102C26.6019 24.9363 26.4221 24.9363 26.2452 24.9102C26.3888 24.573 26.3335 24.1853 26.101 23.9004L25.9424 23.7795C26.3101 23.4666 26.6634 23.1324 27.0022 22.8053C27.0022 22.8053 27.0455 22.7626 27.0671 22.7342L27.6438 22.1013C27.7303 22.016 27.788 21.9164 27.8601 21.8382C27.9322 21.76 28.0836 21.5324 28.1989 21.3689C28.1933 21.3503 28.1933 21.3305 28.1989 21.312C28.3297 21.1372 28.4252 20.9392 28.4801 20.7289C28.4801 20.7289 28.4801 20.672 28.4801 20.6506C28.4583 20.6363 28.4298 20.6363 28.408 20.6506C28.2796 20.7238 28.1709 20.8262 28.0908 20.9493C27.2586 21.9495 26.3263 22.8643 25.308 23.68L25.1278 23.7226C25.0196 23.7412 24.9133 23.7697 24.8106 23.808C24.7467 23.6163 24.7467 23.4095 24.8106 23.2178V23.1111L24.9259 23.1253Z" fill="#007859"/>
    <path d="M26.6209 12.7502C26.8227 12.672 27.1976 12.992 27.2192 12.608C27.2409 12.224 26.7506 11.84 26.6064 11.4275C26.524 11.2726 26.4961 11.095 26.5271 10.9226C26.5452 10.866 26.5836 10.818 26.6353 10.7875C26.7074 10.7306 26.9092 10.7875 26.9525 10.7875C27.024 10.8172 27.1045 10.8172 27.176 10.7875C27.2204 10.7576 27.243 10.7047 27.2336 10.6524C27.1437 10.4378 27.0275 10.2348 26.8876 10.048C26.7795 9.81331 26.6209 9.52886 26.765 9.26575C26.7853 9.22752 26.8228 9.2011 26.866 9.19464C26.9473 9.16466 27.0369 9.16466 27.1183 9.19464C27.2192 9.23731 27.3562 9.31553 27.4716 9.13064C27.6662 8.82486 27.4716 8.41953 27.5148 8.04264C27.5244 7.82582 27.6471 7.62937 27.8392 7.52353C27.9201 7.5033 28.0059 7.51612 28.0771 7.55909C28.452 7.78664 28.4953 8.2702 28.7981 8.56175C28.8403 8.61114 28.8992 8.64394 28.9639 8.6542C29.0936 8.58309 29.1729 8.42664 29.3388 8.41242C29.4346 8.41411 29.5212 8.46921 29.5622 8.55464C29.8074 9.12353 29.4541 9.69242 29.4974 10.2826C29.5012 10.3617 29.5409 10.4348 29.6055 10.4818C29.6848 10.4818 29.7425 10.4818 29.8002 10.4178C29.8823 10.297 30.0204 10.2249 30.1678 10.2258C30.2418 10.2494 30.2987 10.3082 30.3192 10.3822C30.3985 10.9155 30.0164 11.3138 29.8362 11.7689C29.8362 11.8613 29.7785 11.9822 29.8362 12.0604C29.8927 12.0986 29.9672 12.0986 30.0236 12.0604C30.1388 11.9913 30.2834 11.9913 30.3985 12.0604C30.5355 12.1884 30.4706 12.416 30.3985 12.5653C30.3466 12.6858 30.2813 12.8003 30.2039 12.9066C29.9427 12.7673 29.6239 12.7866 29.382 12.9564C28.9999 13.2683 28.7802 13.733 28.7836 14.2222C28.6781 14.1641 28.5636 14.1233 28.4448 14.1013C28.5097 13.7244 28.5457 13.3262 28.6106 12.9422C28.5998 12.9273 28.5998 12.9073 28.6106 12.8924C28.6106 12.5582 28.6611 12.1813 28.6683 11.84C28.6789 11.0962 28.6162 10.3531 28.4809 9.62131C28.4016 9.43642 28.4016 9.19464 28.1997 9.08798C28.1276 9.08798 28.1276 9.1662 28.106 9.22309C28.1109 9.46163 28.135 9.69941 28.1781 9.9342C28.2654 10.8456 28.2509 11.7637 28.1348 12.672C28.0916 12.8782 28.0843 13.1129 28.0339 13.3262C27.9113 14.1298 27.7455 14.9049 27.5797 15.6942V15.6942C27.4702 15.6372 27.3499 15.6033 27.2264 15.5946C27.2264 15.5235 27.2264 15.4453 27.2264 15.3671C27.1866 14.8088 27.019 14.2666 26.7362 13.7813C26.5885 13.5361 26.5113 13.2559 26.5127 12.9706C26.5226 12.8692 26.5855 12.7802 26.6785 12.736L26.6209 12.7502Z" fill="#007859"/>
    <path d="M27.9762 16.6898C27.9762 16.6898 27.9762 16.6898 27.9762 16.6329C27.9828 16.4725 27.9658 16.312 27.9258 16.1565C27.9978 16.1565 28.0916 16.2631 28.1853 16.2062C28.2231 16.1766 28.2466 16.1328 28.2502 16.0853C28.2819 15.9665 28.2819 15.8415 28.2502 15.7227C28.1409 15.4552 28.0775 15.1716 28.0627 14.8836C28.0491 14.7296 28.1359 14.584 28.279 14.5209C28.5097 14.5209 28.6178 14.6702 28.7692 14.7982C28.8197 14.7982 28.8774 14.7982 28.9351 14.7982C29.1008 14.6233 29.2001 14.3972 29.2162 14.1582C29.2688 13.823 29.4494 13.5203 29.7209 13.312C29.8261 13.2537 29.9545 13.2537 30.0597 13.312C30.2979 13.5529 30.4097 13.889 30.3625 14.2222C30.3565 14.2718 30.3565 14.322 30.3625 14.3716C30.3508 14.4702 30.3885 14.5684 30.4634 14.6347C30.586 14.6773 30.6365 14.5422 30.7374 14.5422C30.8383 14.5422 30.8527 14.5422 30.9176 14.5422C30.9825 14.5422 31.0834 14.7058 31.1123 14.8196C31.0388 15.3452 30.8135 15.8389 30.4634 16.2418C30.4634 16.32 30.3913 16.4267 30.4634 16.5049C30.5355 16.5831 30.7013 16.5049 30.8023 16.5049C30.8472 16.4935 30.8943 16.4935 30.9392 16.5049C31.0189 16.5677 31.0553 16.6699 31.033 16.768C30.9914 16.935 30.9041 17.0875 30.7806 17.2089C30.7073 17.3017 30.6278 17.3896 30.5427 17.472C30.5106 17.4978 30.4769 17.5215 30.4418 17.5431C30.2688 17.7493 29.9804 17.8702 29.9299 18.1547C29.932 18.1952 29.9571 18.231 29.9948 18.2471C30.139 18.2471 30.276 18.1973 30.4418 18.2471C30.5384 18.2584 30.6265 18.307 30.6869 18.3822C30.7878 18.6453 30.5355 18.8445 30.3625 18.9938C30.1759 19.1243 29.9752 19.234 29.7641 19.3209C29.59 19.1103 29.3152 19.0073 29.0432 19.0507C28.8426 19.0794 28.6535 19.1604 28.4953 19.2853C28.4534 19.1482 28.3641 19.03 28.243 18.9511C28.4665 18.6453 28.6971 18.3182 28.8846 18.0125C28.9927 17.8702 29.0792 17.6853 29.1802 17.5431C29.3027 17.2658 29.4613 17.0169 29.5695 16.7253C29.6127 16.576 29.692 16.4267 29.7353 16.2631C29.8606 15.8311 29.8901 15.3776 29.8218 14.9333C29.8186 14.8802 29.7923 14.8309 29.7497 14.7982C29.656 14.7982 29.6344 14.912 29.5983 14.976C29.5262 15.2107 29.4974 15.4596 29.4037 15.6871C29.1794 16.3742 28.8694 17.0311 28.4809 17.6427C28.4198 17.451 28.256 17.3086 28.0555 17.2729C27.9815 17.2606 27.906 17.2606 27.832 17.2729C27.832 17.2089 27.8753 17.1662 27.8753 17.1022C27.9249 16.9744 27.9564 16.8404 27.969 16.704L27.9762 16.6898Z" fill="#007859"/>
    <path d="M24.2923 6.53513C24.4027 6.50167 24.5207 6.50167 24.6311 6.53513C24.6688 6.5458 24.7088 6.5458 24.7464 6.53513C24.9339 6.48535 24.9627 6.24357 24.9123 6.11557C24.8113 5.82402 24.4581 5.54668 24.4581 5.21957C24.4887 5.1033 24.5791 5.01148 24.696 4.9778C25.1213 4.81424 25.5971 5.37602 25.9216 5.58935C26.0585 5.66757 26.1883 5.78846 26.3685 5.75291C26.5488 5.71735 26.4983 5.4898 26.6497 5.44002C26.7943 5.43493 26.929 5.51243 26.9958 5.63913C27.2017 6.04442 27.3195 6.48766 27.3418 6.94046C27.3418 7.11113 27.3418 7.28891 27.3418 7.45957C27.2463 7.6148 27.1804 7.78589 27.1471 7.96446C27.1094 8.22387 27.1094 8.48727 27.1471 8.74668C27.0633 8.73716 26.9787 8.73716 26.8948 8.74668C26.734 7.91011 26.4082 7.11282 25.936 6.40002C25.8351 6.28624 25.7269 6.11557 25.5683 6.10846C25.5454 6.14043 25.5454 6.18316 25.5683 6.21513C25.5717 6.2706 25.589 6.32438 25.6188 6.37157C25.6188 6.42135 25.662 6.45691 25.6692 6.5138C26.0778 7.2642 26.374 8.06899 26.5488 8.90313C26.5488 8.98135 26.4695 9.01691 26.4406 9.09513C26.4105 9.20476 26.3888 9.31649 26.3757 9.42935V9.42935C26.1018 9.03113 25.3881 8.96713 25.1141 8.5618C25.0362 8.47415 25.0115 8.35225 25.0492 8.2418C25.1285 8.09957 25.3232 8.15646 25.4602 8.1138C25.5018 8.09353 25.5293 8.05285 25.5323 8.00713C25.4602 7.78668 25.2367 7.65157 25.0492 7.5378C24.6923 7.39163 24.4076 7.11339 24.2562 6.76268C24.2279 6.67787 24.2604 6.58487 24.3355 6.53513H24.2923Z" fill="#007859"/>
    <path d="M24.393 8.93153C24.4795 8.87465 24.5876 8.93153 24.6885 8.93153L24.8039 8.9742C25.2451 9.28031 25.7131 9.54685 26.2025 9.77064C26.2661 9.77993 26.3303 9.7588 26.3755 9.71376C26.4173 9.901 26.493 10.0793 26.599 10.24C26.6189 10.26 26.6337 10.2844 26.6423 10.3111C26.4595 10.3558 26.3063 10.4782 26.2241 10.6453V10.7093C26.0372 10.453 25.7898 10.2455 25.5032 10.1049C25.5032 10.1049 25.4095 10.1049 25.4095 10.1618C25.4095 10.3822 25.6041 10.5458 25.7123 10.7093C26.0617 11.2107 26.318 11.7693 26.4692 12.3591C26.3668 12.4089 26.2779 12.482 26.2097 12.5724C26.035 12.9121 26.035 13.3136 26.2097 13.6533C26.2962 13.8524 26.4404 14.0302 26.5125 14.2364C26.6502 14.5645 26.7447 14.9086 26.7937 15.2604C26.7822 15.4095 26.7822 15.5593 26.7937 15.7084C26.7937 15.7084 26.7937 15.7511 26.7937 15.7582C26.7937 15.7653 26.7937 15.7013 26.7504 15.68C26.5413 14.9689 25.4671 14.2933 25.013 13.7671C24.7426 13.4844 24.6063 13.102 24.6381 12.7146C24.6691 12.6184 24.7591 12.5525 24.8616 12.5511C24.9697 12.5511 25.0995 12.5938 25.2148 12.5511C25.272 12.5468 25.3233 12.5148 25.3518 12.4658C25.3951 12.288 25.2725 12.1386 25.186 12.0106C25.0995 11.8826 24.8688 11.6978 24.703 11.52V11.4773C24.5371 11.2853 24.3425 11.1289 24.4146 10.8444C24.4795 10.7235 24.6164 10.7378 24.7318 10.7164C24.7756 10.6939 24.8091 10.6558 24.8255 10.6098C24.8255 10.2684 24.5732 10.0409 24.4362 9.77064C24.3187 9.58338 24.2633 9.36465 24.2776 9.14487C24.3005 9.06574 24.3485 8.99594 24.4146 8.94576L24.393 8.93153Z" fill="#007859"/>
    <path d="M24.1912 19.4702C24.2012 19.3387 24.2205 19.208 24.2488 19.0791C24.2921 18.944 24.3426 18.7875 24.5012 18.7449C24.6598 18.7022 24.8833 19.1218 25.0563 18.8444C25.1207 18.6504 25.1207 18.4411 25.0563 18.2471C24.9986 18.0409 24.8833 17.856 24.8328 17.6355C24.7435 17.4405 24.6921 17.2306 24.6814 17.0169C24.6757 16.9023 24.7204 16.7909 24.804 16.7111C24.9049 16.6044 25.0275 16.7111 25.1428 16.6684C25.2582 16.6258 25.2149 16.6258 25.2437 16.5973C25.3158 16.2275 25.0635 15.9431 25.114 15.5733C25.1069 15.3664 25.204 15.1693 25.3735 15.0471C25.5888 14.9493 25.844 15.0078 25.9935 15.1893C26.1459 15.3871 26.2741 15.6019 26.3756 15.8293C26.5198 16.1493 26.5991 16.4409 26.9812 16.1778C27.0965 16.0995 27.1902 15.9715 27.3561 15.9715C27.4539 15.9962 27.5293 16.0733 27.5507 16.1707C27.6021 16.4072 27.5872 16.653 27.5075 16.8818C27.4537 17.0288 27.4174 17.1816 27.3993 17.3369C27.3747 17.4422 27.3747 17.5516 27.3993 17.6569C27.3993 17.6569 27.4426 17.7351 27.4858 17.7422C27.5291 17.7493 27.6516 17.664 27.7382 17.6498C27.8364 17.6047 27.9499 17.6047 28.0482 17.6498C28.1156 17.7057 28.1506 17.7909 28.1419 17.8773C28.0986 18.3111 27.6877 18.5884 27.5075 18.9369C27.4877 18.9921 27.4877 19.0523 27.5075 19.1075C27.524 19.136 27.5536 19.1546 27.5868 19.1573V19.1573C27.6385 19.148 27.6892 19.1337 27.7382 19.1147C27.8607 19.1147 28.0049 19.1147 28.0698 19.2427C28.1491 19.4702 27.9689 19.6551 27.8319 19.8115V19.8115C27.6937 19.6455 27.4781 19.5621 27.2623 19.5911C26.6712 19.7333 26.4837 20.352 26.3251 20.9707C26.266 20.881 26.1872 20.8056 26.0944 20.7502C26.5085 19.5651 26.5809 18.2899 26.3035 17.0667C26.2824 16.8294 26.1894 16.604 26.0368 16.4195C26.001 16.4199 25.9681 16.4388 25.9502 16.4693C25.9267 16.5915 25.9267 16.7169 25.9502 16.8391C26.1445 18.1037 26.0559 19.3949 25.6907 20.6222C25.567 20.6221 25.4463 20.6593 25.3447 20.7289C25.0219 21.0165 24.8607 21.4406 24.9121 21.8667C24.9127 21.9858 24.883 22.1032 24.8256 22.208C24.5589 21.4969 24.1912 21.4044 23.9316 21.5395C24.2477 20.8921 24.3414 20.1606 24.1984 19.456L24.1912 19.4702Z" fill="#007859"/>
    <path d="M20.9682 23.8222C21.0908 23.68 21.271 23.4951 21.4585 23.5947C21.6459 23.6942 21.5233 23.9645 21.7036 24.0711C21.8838 24.1778 22.0064 23.8294 22.0713 23.6445C22.1484 23.3208 22.2472 23.0025 22.3668 22.6916C22.4533 22.5351 22.5399 22.3574 22.7633 22.4214C22.9868 22.4854 22.9003 22.848 23.1382 22.8196C23.3761 22.7911 23.6068 21.888 24.0682 21.9876C24.2989 22.0374 24.5152 22.4356 24.5224 22.9547C24.4756 23.2849 24.4756 23.62 24.5224 23.9502C24.5454 23.9707 24.5606 23.9983 24.5657 24.0285C24.4359 24.1422 24.2917 24.2489 24.1547 24.3556C24.1133 24.2491 24.0466 24.154 23.9601 24.0782C23.8967 24.0278 23.8292 23.9826 23.7582 23.9431C23.8839 23.6913 23.9458 23.4131 23.9385 23.1325C23.9061 23.1099 23.8627 23.1099 23.8303 23.1325C23.6573 23.2605 23.5492 23.6445 23.3689 23.9502C22.8662 24.1106 22.467 24.4912 22.2875 24.9814C22.2875 24.9814 22.2875 24.9387 22.2875 24.9245C22.1493 24.755 21.927 24.6755 21.7108 24.7182C21.1268 24.832 20.8313 25.4294 20.4996 25.9271C20.4131 25.6925 20.2401 25.6569 20.0166 25.5787C20.5285 24.9671 20.6366 24.3058 21.0403 23.8578L20.9682 23.8222Z" fill="#007859"/>
    <path d="M18.9428 26.8515C19.1539 26.5004 19.4274 26.1897 19.7503 25.9342C19.8351 25.8965 19.9322 25.8965 20.017 25.9342C20.1323 25.9982 20.1468 26.2898 20.327 26.2755C20.5072 26.2613 20.9182 25.8133 21.0912 25.5644C21.2241 25.3279 21.4431 25.1499 21.704 25.0666C21.7891 25.0481 21.8772 25.0817 21.9275 25.152C22.0212 25.3013 21.9275 25.5431 22.0572 25.664C22.2086 25.664 22.3023 25.5573 22.3889 25.4649C22.4754 25.3724 22.5691 25.1733 22.67 25.0595C22.6837 25.0077 22.7083 24.9592 22.7421 24.9173C22.8992 24.6371 23.1561 24.4243 23.463 24.32C23.5637 24.2956 23.6682 24.3427 23.7154 24.4338C23.7525 24.5089 23.7699 24.592 23.7658 24.6755C23.7658 24.6755 23.7658 24.6755 23.7658 24.7324C23.7644 24.7812 23.7928 24.8261 23.8379 24.8462C23.9518 24.8684 24.07 24.8481 24.1696 24.7893C24.5949 24.6329 24.8256 24.2275 25.2726 24.1209C25.4634 24.0572 25.6726 24.0753 25.8493 24.1706C25.9848 24.317 26.024 24.5267 25.9502 24.7111C25.9502 24.7111 25.9502 24.7538 25.9502 24.768C25.8421 25.0524 25.6403 25.3013 25.5177 25.5715C25.5177 25.6142 25.5177 25.6355 25.5177 25.6782C25.5058 25.7597 25.5293 25.8423 25.5826 25.9058C25.6286 25.9313 25.6769 25.9527 25.7268 25.9698C25.8268 26.0043 25.9095 26.0756 25.9575 26.1689C25.9636 26.3231 25.8756 26.4659 25.734 26.5315C25.2582 26.8231 24.6165 26.7164 24.1119 26.9511C23.9749 26.9938 23.7803 27.0649 23.7514 27.2213C23.7226 27.3778 23.7514 27.328 23.8235 27.3564C23.8956 27.3849 24.047 27.4773 24.0542 27.5911C24.0614 27.7049 23.8596 27.8826 23.7009 27.9466L23.564 27.9893C22.7998 28.16 21.9635 27.9111 21.1921 28.0462C20.9973 28.0679 20.8061 28.1133 20.6226 28.1813C20.5577 28.1813 20.5216 28.1386 20.4568 28.1315C20.1576 28.0102 19.849 27.9127 19.534 27.84L20.1323 27.7333C20.1323 27.7333 20.2044 27.7333 20.2333 27.7333C20.3847 27.6693 20.5433 27.6835 20.6803 27.6124C20.8172 27.5413 20.7884 27.5698 20.8461 27.5698C21.0768 27.4844 21.3147 27.4204 21.567 27.3422C21.8193 27.264 21.9635 27.1858 22.1654 27.1146C22.1654 27.1146 22.2303 27.1146 22.2447 27.1146C22.2591 27.1146 22.324 27.0649 22.3816 27.0649C22.4566 27.0253 22.5336 26.9897 22.6123 26.9582C22.9209 26.8227 23.2217 26.6708 23.5135 26.5031C23.6107 26.46 23.7047 26.4101 23.7947 26.3538C24.205 26.131 24.5674 25.8315 24.8616 25.472C24.8616 25.472 24.9049 25.3795 24.8616 25.344C24.8184 25.3084 24.6886 25.344 24.6093 25.344C24.2157 25.6051 23.8064 25.8426 23.3837 26.0551L22.7133 26.368L22.533 26.432C22.3096 26.5386 22.0716 26.6169 21.8121 26.7022L21.3075 26.8515L20.983 26.9511C20.2621 27.1502 19.3105 27.3849 18.7337 27.4915C18.5391 27.5271 18.3372 27.5698 18.1426 27.5982V27.5982C18.4526 27.424 18.7168 27.1804 18.914 26.8871L18.9428 26.8515Z" fill="#007859"/>
    <path d="M14.5589 27.6409C15.0327 27.4809 15.4743 27.2402 15.8638 26.9297C16.3075 27.285 16.8132 27.5573 17.3561 27.7333V27.7333C16.9105 28.1616 16.4057 28.5255 15.8566 28.8142C15.8133 28.8142 15.8061 28.8142 15.7701 28.7715C15.3234 28.5323 14.9092 28.2385 14.5373 27.8969C14.4745 27.8478 14.4166 27.7931 14.3643 27.7333C14.4291 27.7333 14.5012 27.6906 14.5661 27.6551L14.5589 27.6409Z" fill="#D90912"/>
    <path d="M11.481 28.5796C11.5243 28.5796 11.5891 28.5796 11.6324 28.5227C12.1275 28.3709 12.6305 28.2451 13.1391 28.1458C13.3915 28.0818 13.6438 28.0178 13.8601 27.9396C14.0118 28.0987 14.1757 28.2461 14.3503 28.3805C14.1586 28.4596 13.961 28.5238 13.7591 28.5725C13.1103 28.7787 12.4038 28.864 11.7622 29.0845C11.3062 29.217 10.892 29.4617 10.5582 29.7956C10.4051 29.948 10.2849 30.1294 10.205 30.3289C10.068 30.1369 9.97426 29.9307 9.83008 29.7529C10.2371 29.1958 10.8164 28.7841 11.481 28.5796Z" fill="#007859"/>
    <path d="M16.8444 28.7218C16.978 28.7822 17.1152 28.8344 17.2553 28.8782C17.6655 29.0187 18.0845 29.1327 18.5097 29.2196C18.6179 29.2196 18.7188 29.2694 18.8341 29.2765C19.1153 29.3405 19.4181 29.3974 19.6776 29.4827C19.7281 29.4827 19.8002 29.4827 19.8435 29.5538C20.4026 29.7246 20.863 30.1194 21.1123 30.6418V30.7058C20.9609 30.9262 20.8383 31.1254 20.6941 31.3458C20.6509 31.3458 20.6941 31.2391 20.6509 31.1894C20.4635 30.3787 19.5767 30.0729 18.8486 29.8951C17.9403 29.7401 17.0544 29.4775 16.21 29.1129C16.41 29.0046 16.6027 28.8834 16.7867 28.7502L16.8444 28.7218Z" fill="#007859"/>
    <path d="M17.7815 27.9254C18.452 28.1529 19.2234 28.224 19.8722 28.4445C20.4579 28.6161 21.0006 28.9068 21.4655 29.2978C21.5945 29.4243 21.7017 29.5709 21.7827 29.7316C21.7271 29.799 21.6765 29.8703 21.6313 29.9449C21.5592 30.0516 21.4871 30.1867 21.4078 30.2934C21.4078 30.2934 21.4078 30.2507 21.4078 30.2436C21.2613 29.9656 21.0546 29.7228 20.8022 29.5325C20.8022 29.5325 20.759 29.5325 20.7301 29.4827C19.9122 29.0721 19.0299 28.8005 18.1204 28.6791C17.8242 28.5985 17.5329 28.5012 17.248 28.3876C17.4139 28.2382 17.5941 28.0889 17.7527 27.9254L17.7815 27.9254Z" fill="#D90912"/>
    <path d="M10.9547 30.0231C11.4723 29.6367 12.084 29.3914 12.7282 29.312C12.7282 29.312 12.8003 29.312 12.8435 29.312C12.8868 29.312 12.9733 29.312 13.0454 29.2694C13.2401 29.2196 13.4491 29.1911 13.6366 29.1342C14.014 29.0337 14.3848 28.9102 14.7468 28.7645C14.9319 28.9047 15.1245 29.0353 15.3235 29.1556C14.4206 29.5403 13.4743 29.8173 12.5047 29.9805C12.0392 30.0935 11.6071 30.3127 11.2431 30.6205C11.0435 30.8349 10.9109 31.1016 10.861 31.3885V31.3885C10.7312 31.1822 10.6014 30.9618 10.4717 30.7698C10.5694 30.4946 10.7384 30.2495 10.9619 30.0587L10.9547 30.0231Z" fill="#D90912"/>
    <path d="M14.0547 24.9742C13.7784 24.8392 13.4761 24.7641 13.168 24.7538C13.7325 25.53 14.3567 26.2623 15.0352 26.944C15.2106 26.8662 15.3734 26.7631 15.5182 26.6382C15.0022 26.1169 14.5206 25.5634 14.0763 24.9813L14.0547 24.9742Z" fill="#007859"/>
    <path d="M12.5191 24.5831C12.2699 24.4416 11.9843 24.3749 11.6973 24.3911C12.3827 25.4502 13.162 26.4473 14.0259 27.3707C14.2206 27.3102 14.4109 27.2366 14.5954 27.1502C13.8325 26.3527 13.138 25.494 12.5191 24.5831V24.5831Z" fill="#D90912"/>
    <path d="M17.6813 24.9742C17.9575 24.8392 18.2599 24.7641 18.568 24.7538C18.0033 25.5299 17.3791 26.2621 16.7008 26.944C16.5255 26.866 16.3627 26.763 16.2178 26.6382C16.7338 26.1169 17.2154 25.5634 17.6596 24.9813L17.6813 24.9742Z" fill="#007859"/>
    <path d="M19.2169 24.5831C19.4661 24.4416 19.7517 24.3749 20.0388 24.3911C19.3536 25.4504 18.5743 26.4475 17.7102 27.3707C17.5154 27.3102 17.3251 27.2366 17.1406 27.1502C17.9035 26.3527 18.598 25.494 19.2169 24.5831V24.5831Z" fill="#D90912"/>
    <path fill-rule="evenodd" clip-rule="evenodd" d="M15.8607 23.7047C15.8619 23.7059 15.8631 23.7072 15.8643 23.7085H15.8571C15.8583 23.7072 15.8595 23.7059 15.8607 23.7047ZM15.8607 23.7047C15.9919 23.5664 16.1469 23.4522 16.3185 23.3671C17.2731 22.996 18.2796 22.7705 19.3031 22.6987C21.0986 22.5575 22.4809 21.0762 22.4752 19.2996V6.49957H9.24614V19.2996C9.24044 21.0762 10.6228 22.5575 12.4182 22.6987C13.4418 22.7705 14.4482 22.996 15.4029 23.3671C15.5745 23.4522 15.7294 23.5664 15.8607 23.7047ZM19.231 22.1511C18.0629 22.2096 16.9183 22.4973 15.8643 22.9973V23.0045C14.8102 22.5044 13.6657 22.2167 12.4975 22.1582C10.9757 22.0642 9.79105 20.8179 9.79404 19.3138V7.02579H21.9345V19.3067C21.9375 20.8107 20.7529 22.0571 19.231 22.1511Z" fill="#1D1D1B"/>
    <path d="M10.7669 1.10931H11.3076V2.1902H10.7669V1.10931V1.10931V1.10931Z" fill="#1D1D1B"/>
    <path d="M15.1074 0H15.6481V0.554667H16.0879V0H16.6214V1.08089H15.1074V0V0V0Z" fill="#1D1D1B"/>
    <path d="M11.748 1.79913V0.554688H12.2815V1.63558L12.8222 2.45335V4.13869H12.2815V2.6098L11.748 1.79913V1.79913V1.79913Z" fill="#1D1D1B"/>
    <path d="M13.2542 1.10935H13.694V1.63558H12.7207V0.554688H13.2542V1.10935V1.10935V1.10935Z" fill="#1D1D1B"/>
    <path d="M14.1844 5.10576H10.3346V3.16442L9.79395 2.35376V1.10931H10.3346V2.1902L10.8681 3.00798V4.57243H14.1844V5.10576V5.10576V5.10576Z" fill="#1D1D1B"/>
    <path d="M20.4277 1.10931H20.9612V2.1902H20.4277V1.10931V1.10931V1.10931Z" fill="#1D1D1B"/>
    <path d="M19.9882 1.79913V0.554688H19.4476V1.63558L18.9141 2.45335V4.13869H19.4476V2.6098L19.9882 1.79913V1.79913V1.79913Z" fill="#1D1D1B"/>
    <path d="M18.4739 1.10935H18.0342V1.63558H19.0146V0.554688H18.4739V1.10935V1.10935V1.10935Z" fill="#1D1D1B"/>
    <path d="M10.335 6.06576V5.53243H14.6605V4.57243C14.7101 3.93111 15.2521 3.43567 15.9041 3.43567C16.5562 3.43567 17.0982 3.93111 17.1478 4.57243V5.53243H21.4733V6.06576H16.6431V4.57243C16.6431 4.17969 16.3203 3.86132 15.9222 3.86132C15.524 3.86132 15.2012 4.17969 15.2012 4.57243V6.06576H10.335Z" fill="#1D1D1B"/>
    <path d="M17.5508 5.10576H21.4005V3.16442L21.9412 2.35376V1.10931H21.4005V2.1902L20.8671 3.00798V4.57243H17.5508V5.10576V5.10576V5.10576Z" fill="#1D1D1B"/>
    <path d="M15.1579 3.06489V1.82756L14.6677 1.11644V0H14.127V1.24444L14.6172 1.95556V3.456C14.7692 3.2914 14.953 3.15843 15.1579 3.06489V3.06489Z" fill="#1D1D1B"/>
    <path d="M16.5703 3.06489V1.82756L17.0605 1.11644V0H17.6012V1.24444L17.111 1.95556V3.456C16.9593 3.29111 16.7754 3.15809 16.5703 3.06489Z" fill="#1D1D1B"/>
</svg>
