<svg width="80" height="22" viewBox="0 0 80 22" fill="none" xmlns="http://www.w3.org/2000/svg">
<path opacity="0.4" fill-rule="evenodd" clip-rule="evenodd" d="M76.2256 16.7319H78.7044V1.54883H76.2256L76.2256 3.52854C74.8765 2.29872 73.0823 1.54883 71.1129 1.54883C68.4555 1.54883 66.117 2.91428 64.7611 4.98186C65.5438 6.17502 65.9993 7.60201 66.0003 9.13535C66.0003 9.13702 66.0003 9.1387 66.0003 9.14038C66.0003 9.14205 66.0003 9.14373 66.0003 9.14541C65.9993 10.6787 65.5438 12.1057 64.7607 13.2989C66.117 15.3665 68.4555 16.7319 71.1129 16.7319C73.0823 16.7319 74.8765 15.982 76.2256 14.7522L76.2256 16.7319ZM66.0003 9.14541C66.0003 9.14373 66.0003 9.14205 66.0003 9.14038C66.0003 9.1387 66.0003 9.13702 66.0003 9.13535C66.003 6.31401 68.291 4.0277 71.1129 4.0277C73.9366 4.0277 76.2256 6.31672 76.2256 9.14038C76.2256 11.964 73.9366 14.2531 71.1129 14.2531C68.291 14.2531 66.003 11.9667 66.0003 9.14541Z" fill="white"/>
<path opacity="0.4" fill-rule="evenodd" clip-rule="evenodd" d="M2.47882 3.52854L2.47884 1.54883H0V21.07H2.47884L2.47882 14.7522C3.82791 15.982 5.62211 16.7319 7.59146 16.7319C10.2489 16.7319 12.5874 15.3665 13.9433 13.2989C13.1598 12.1044 12.7041 10.6756 12.7041 9.14038C12.7041 7.60513 13.1598 6.17633 13.9437 4.98186C12.5874 2.91428 10.2489 1.54883 7.59146 1.54883C5.62211 1.54883 3.82791 2.29872 2.47882 3.52854ZM2.47884 9.14038C2.47884 6.31672 4.76784 4.0277 7.59146 4.0277C10.4151 4.0277 12.7041 6.31672 12.7041 9.14038C12.7041 11.964 10.4151 14.2531 7.59146 14.2531C4.76784 14.2531 2.47884 11.964 2.47884 9.14038Z" fill="white"/>
<path opacity="0.7" fill-rule="evenodd" clip-rule="evenodd" d="M27.8869 3.53569V1.54883H25.4081L25.4081 3.52854C24.059 2.29872 22.2648 1.54883 20.2955 1.54883C16.1029 1.54883 12.7041 4.94768 12.7041 9.14038C12.7041 13.3331 16.1029 16.7319 20.2955 16.7319C22.2648 16.7319 24.059 15.982 25.4081 14.7522L25.4081 16.7319H27.8869V14.7821C26.3638 13.3909 25.4081 11.3868 25.4081 9.15892C25.4081 6.93108 26.3638 4.92692 27.8869 3.53569ZM15.1829 9.14038C15.1829 6.31672 17.4719 4.0277 20.2955 4.0277C23.1191 4.0277 25.4081 6.31672 25.4081 9.14038C25.4081 11.964 23.1191 14.2531 20.2955 14.2531C17.4719 14.2531 15.1829 11.964 15.1829 9.14038Z" fill="white"/>
<path opacity="0.7" fill-rule="evenodd" clip-rule="evenodd" d="M53.2965 3.52826L53.2963 1.54883H50.8174V3.52854C52.3405 4.91695 53.2963 6.91705 53.2963 9.14038C53.2963 11.3637 52.3405 13.3638 50.8174 14.7522V21.07H53.2963L53.2965 14.7525C54.6456 15.9821 56.4397 16.7319 58.4089 16.7319C62.6016 16.7319 66.0005 13.3331 66.0005 9.14038C66.0005 4.94768 62.6016 1.54883 58.4089 1.54883C56.4397 1.54883 54.6456 2.29861 53.2965 3.52826ZM53.2963 9.14038C53.2963 6.31672 55.5853 4.0277 58.4089 4.0277C61.2326 4.0277 63.5216 6.31672 63.5216 9.14038C63.5216 11.964 61.2326 14.2531 58.4089 14.2531C55.5853 14.2531 53.2963 11.964 53.2963 9.14038Z" fill="white"/>
<path fill-rule="evenodd" clip-rule="evenodd" d="M40.5913 0V3.52868L40.6957 3.43561C42.0323 2.26133 43.785 1.5493 45.704 1.5493C49.8967 1.5493 53.2955 4.94815 53.2955 9.14085C53.2955 13.3335 49.8967 16.7324 45.704 16.7324C43.7346 16.7324 41.9404 15.9825 40.5913 14.7527L40.5913 16.7663C40.5913 18.6998 39.8179 20.5171 38.4608 21.8996L38.3604 22L36.625 20.2263C37.5472 19.3204 38.0775 18.1447 38.1108 16.8919L38.1124 16.7663L38.1125 14.7826C36.7633 16.0149 34.9691 16.7663 32.9998 16.7663C28.8071 16.7663 25.4082 13.3606 25.4082 9.15939C25.4082 4.95818 28.8071 1.55244 32.9998 1.55244C34.9691 1.55244 36.7633 2.30385 38.1125 3.53617L38.1124 0H40.5913ZM32.9998 4.03634C30.1761 4.03634 27.8871 6.33001 27.8871 9.15939C27.8871 11.9888 30.1761 14.2824 32.9998 14.2824C35.8234 14.2824 38.1124 11.9888 38.1124 9.15939C38.1124 6.33001 35.8234 4.03634 32.9998 4.03634ZM40.5913 9.14085C40.5913 6.31719 42.8803 4.02817 45.704 4.02817C48.5276 4.02817 50.8167 6.31719 50.8167 9.14085C50.8167 11.9645 48.5276 14.2535 45.704 14.2535C42.8803 14.2535 40.5913 11.9645 40.5913 9.14085Z" fill="white"/>
</svg>
