<svg width="60" height="60" viewBox="0 0 60 60" fill="none" xmlns="http://www.w3.org/2000/svg">
<mask id="mask0_7479_108845" style="mask-type:alpha" maskUnits="userSpaceOnUse" x="7" y="0" width="46" height="60">
<path fill-rule="evenodd" clip-rule="evenodd" d="M7.58259 15.6813C7.58716 15.6648 7.59171 15.6483 7.59835 15.632C7.64387 15.5258 7.70665 15.4279 7.78408 15.3416L21.7126 0.341622C21.7168 0.336391 21.7283 0.329067 21.7283 0.329067C21.7503 0.30971 21.7728 0.291923 21.7958 0.275181C21.8685 0.209787 21.9502 0.154855 22.0381 0.112479C22.0731 0.0967843 22.1087 0.0831822 22.1453 0.0716727C22.2395 0.0376674 22.3378 0.0177873 22.4377 0.013079C22.4479 0.0125842 22.4573 0.00963291 22.4668 0.00665892L22.4668 0.0066584C22.4774 0.00334322 22.4881 0 22.5 0H51.4286C52.0203 0 52.5 0.479736 52.5 1.07143V58.9286C52.5 59.5203 52.0203 60 51.4286 60H8.57143C7.97974 60 7.5 59.5203 7.5 58.9286V16.0714C7.5 16.0606 7.50308 16.0505 7.50613 16.0406C7.5091 16.0309 7.51203 16.0213 7.51203 16.0113C7.51779 15.9113 7.53819 15.8125 7.57167 15.7178C7.57588 15.7056 7.57924 15.6934 7.58259 15.6813ZM21.4286 15V3.80022L11.0282 15H21.4286ZM9.64286 17.1429H22.5C23.0917 17.1429 23.5714 16.6631 23.5714 16.0714V2.14286H50.3571V57.8571H9.64286V17.1429ZM25.5416 27.3345C25.4899 27.4255 25.4239 27.5082 25.347 27.5799C25.3404 27.5857 25.3358 27.5929 25.3311 27.6C25.3258 27.6081 25.3206 27.6161 25.3125 27.6222L19.9554 31.908C19.4934 32.2778 18.8185 32.203 18.4492 31.7411C18.0793 31.2791 18.1541 30.6042 18.6161 30.2349L21.5881 27.8571H18.2143C17.6226 27.8571 17.1429 27.3774 17.1429 26.7857C17.1429 26.194 17.6226 25.7143 18.2143 25.7143H21.5881L18.6161 23.3355C18.1541 22.9661 18.0793 22.2913 18.4492 21.8293C18.8185 21.3674 19.4934 21.2925 19.9554 21.6619L25.3125 25.9476C25.3205 25.9539 25.3257 25.962 25.3309 25.9701C25.3356 25.9773 25.3403 25.9846 25.347 25.9905C25.4239 26.0627 25.4899 26.1454 25.5416 26.2369C25.5683 26.2709 25.5924 26.307 25.6133 26.3442C25.7478 26.623 25.7478 26.9484 25.6133 27.2273C25.5919 27.2644 25.5678 27.3 25.5416 27.3345ZM41.7857 25.7143H38.4119L41.3839 23.3365C41.8459 22.9672 41.9207 22.2923 41.5508 21.8304C41.1815 21.3684 40.5066 21.2936 40.0446 21.6635L34.6875 25.9492C34.6794 25.9553 34.6742 25.9634 34.6689 25.9714C34.6642 25.9785 34.6596 25.9857 34.653 25.9916C34.5761 26.0632 34.5102 26.1459 34.4584 26.2369C34.4322 26.2715 34.4081 26.307 34.3867 26.3442C34.2522 26.623 34.2522 26.9484 34.3867 27.2273C34.4081 27.2644 34.4322 27.3 34.4584 27.3345C34.5102 27.4255 34.5761 27.5082 34.653 27.5799C34.6596 27.5857 34.6642 27.5929 34.6689 27.6C34.6742 27.6081 34.6794 27.6161 34.6875 27.6222L40.0446 31.908C40.5066 32.2778 41.1815 32.203 41.5508 31.7411C41.9207 31.2791 41.8459 30.6042 41.3839 30.2349L38.4119 27.8571H41.7857C42.3774 27.8571 42.8571 27.3774 42.8571 26.7857C42.8571 26.194 42.3774 25.7143 41.7857 25.7143ZM21.0587 41.3839C22.5241 37.7339 26.0669 35.3456 30 35.3571C33.9331 35.3456 37.4759 37.7339 38.9413 41.3839C39.0878 41.7392 39.0323 42.1462 38.7969 42.4496C38.561 42.7536 38.1801 42.9074 37.7998 42.853C37.4189 42.7991 37.0966 42.5448 36.9549 42.1875C35.8097 39.352 33.0579 37.4953 30 37.4953C26.9421 37.4953 24.1903 39.352 23.0451 42.1875C22.8207 42.7321 22.1992 42.9932 21.653 42.7724C21.1074 42.5516 20.8416 41.9312 21.0587 41.3839Z" fill="white"/>
</mask>
<g mask="url(#mask0_7479_108845)">
<rect x="-1.98999" y="-7.13672" width="68" height="70" fill="#00C5CA"/>
</g>
</svg>
