<svg width="60" height="60" viewBox="0 0 60 60" fill="none" xmlns="http://www.w3.org/2000/svg">
<mask id="mask0_9764_174328" style="mask-type:alpha" maskUnits="userSpaceOnUse" x="1" y="0" width="58" height="60">
<path fill-rule="evenodd" clip-rule="evenodd" d="M54.7909 0H39.3668C37.2505 0 35.5289 1.7216 35.5289 3.83789V10.7925C32.6366 6.63785 27.827 3.91289 22.3922 3.91289H18.4629C13.8681 3.91289 9.58875 6.33176 7.20762 10.2492C3.97617 11.2624 1.81699 14.2724 1.9152 17.695L2.13715 25.3643C1.45359 26.0055 1.02539 26.9157 1.02539 27.9247V28.7497C1.02539 30.6857 2.60086 32.2607 4.5375 32.2607H6.89355C7.49332 33.7441 8.36602 35.1282 9.49781 36.3893L8.7055 37.4865L8.67176 37.5333C7.5016 39.1537 5.62645 41.7505 5.47758 41.9569C5.41395 42.0451 5.36719 42.1446 5.33977 42.2498L1.2859 57.8452C1.15078 58.3649 1.26164 58.9068 1.59023 59.3316C1.91871 59.7564 2.41523 60.0001 2.95219 60.0001H35.6473C36.2334 60.0001 36.7985 59.754 37.1978 59.325C37.5971 58.8959 37.8022 58.3143 37.7602 57.7283L37.4273 53.1725C37.3438 52.0195 37.0377 50.9161 36.5174 49.8928C36.2972 49.4602 35.768 49.2877 35.3355 49.5077C34.9029 49.7277 34.7305 50.2569 34.9505 50.6896C35.3641 51.5031 35.6075 52.3812 35.6741 53.3002L36.0069 57.8555C36.0168 57.9921 35.951 58.0847 35.9112 58.1276C35.8713 58.1705 35.7838 58.2424 35.6473 58.2424H31.5934V54.6512C31.5934 54.1658 31.2 53.7723 30.7145 53.7723C30.229 53.7723 29.8356 54.1658 29.8356 54.6512V58.2422H10.5913L12.8339 49.6153C12.8413 49.587 12.8668 49.5672 12.8961 49.5672H16.7794C17.5675 49.5672 18.3103 49.371 18.9632 49.0263C19.5275 49.1287 20.1057 49.1814 20.6871 49.1814C23.152 49.1814 25.5043 48.2398 27.2264 46.5807L27.2297 46.5813L27.2752 46.5907C27.3457 46.6047 27.4167 46.6158 27.8623 46.6852C28.2225 46.7414 28.8275 46.8357 29.8748 47.0005C30.8295 47.1497 31.7235 47.4894 32.5325 48.0102C32.6797 48.105 32.8445 48.1502 33.0075 48.1502C33.2964 48.1502 33.5794 48.008 33.7473 47.747C34.01 47.3389 33.8922 46.795 33.484 46.5322C32.4676 45.8779 31.3446 45.4512 30.1466 45.2639C29.1814 45.1021 28.5914 45.0157 28.204 44.959C27.6861 44.8832 27.53 44.8603 27.3234 44.781C26.689 44.5362 26.2552 43.9322 26.2443 43.2271C27.2836 42.7809 28.0172 41.7652 28.0264 40.586C28.0294 40.2616 27.9789 39.9456 27.8804 39.6468C29.9595 38.4143 32.9405 36.0819 34.4816 32.2605H36.1359C38.0719 32.2605 39.6469 30.6855 39.6469 28.7496V27.9246C39.6469 26.8455 39.1574 25.8789 38.3895 25.2341V22.9727C38.7068 23.0564 39.0354 23.1 39.3669 23.1H42.1348C42.4546 23.1 42.7148 23.3602 42.7148 23.6801V26.1762C42.7148 26.7967 43.0942 27.3273 43.6814 27.528C43.8377 27.5815 43.9968 27.6074 44.1531 27.6074C44.5839 27.6074 44.9943 27.4107 45.2725 27.0513L48.1805 23.3045C48.2815 23.1745 48.4336 23.1 48.5977 23.1H54.7922C56.9085 23.1 58.6301 21.3784 58.6301 19.2621V3.83789C58.6301 1.7216 56.9079 0 54.7909 0ZM2.7832 28.7496V27.9246C2.7832 26.9573 3.57012 26.1703 4.5375 26.1703H5.96367C5.9032 27.6986 5.94281 28.957 6.32449 30.5027H4.5375C3.57012 30.5027 2.7832 29.7163 2.7832 28.7496ZM21.473 44.8737C21.473 45.813 21.1945 46.6881 20.7173 47.4227C22.5095 47.4158 24.2221 46.8012 25.5584 45.7098C24.953 45.1362 24.5627 44.3471 24.4961 43.4692H21.473V44.8737ZM25.0658 41.7113H21.274C20.4144 41.7113 19.7152 42.4105 19.7152 43.2701V44.8736C19.7152 46.4923 18.3982 47.8093 16.7794 47.8093H12.8961C12.0666 47.8093 11.3414 48.3701 11.1327 49.173L8.775 58.2422H2.99906L6.99961 42.8516L8.39896 40.9136C10.2219 38.3889 13.221 34.2355 13.7295 33.5304C13.9119 33.2775 14.1818 33.111 14.4893 33.0616C14.8004 33.0116 15.1144 33.0872 15.3716 33.2739L15.4145 33.3052C15.6938 33.5078 15.8589 33.8211 15.868 34.1721C15.876 34.4099 15.8078 34.6386 15.6698 34.8349L14.0316 37.1756C13.7263 37.6104 13.6889 38.1734 13.9338 38.6448C14.179 39.1165 14.6617 39.4096 15.1936 39.4096H25.1177C25.4254 39.4096 25.7146 39.5295 25.9323 39.7471C26.1519 39.9668 26.2714 40.2591 26.2686 40.5711C26.2637 41.1998 25.7241 41.7113 25.0658 41.7113ZM36.1359 30.5027C37.1026 30.5027 37.8891 29.7163 37.8891 28.7496V27.9246C37.8891 26.9573 37.1026 26.1703 36.1359 26.1703H35.4117C35.4267 26.5519 35.435 26.9398 35.435 27.3316C35.435 28.4125 35.3048 29.4743 35.0509 30.5027H36.1359ZM36.1359 24.4125H35.286C35.183 23.4253 35.0259 22.4693 34.8158 21.5616C34.4052 19.795 32.8461 18.4895 31.0242 18.387C27.619 18.1961 24.146 17.3132 20.9802 15.8336C20.0938 15.4201 19.0233 15.7056 18.4897 16.4978C18.2883 16.7971 17.865 17.0148 17.4875 17.0062C16.8722 16.9991 16.1955 16.661 15.3586 15.9425C14.7942 15.4571 14.2255 14.8889 13.6207 14.2059C13.1858 13.7136 12.5602 13.431 11.9041 13.4304H11.9019C11.2498 13.4304 10.6277 13.71 10.1948 14.198C9.3491 15.1523 8.61539 16.248 8.0141 17.4544C7.79754 17.8888 7.97414 18.4165 8.40856 18.6332C8.84309 18.8497 9.37066 18.6731 9.58734 18.2387C10.12 17.1702 10.767 16.2029 11.5103 15.3642C11.646 15.2113 11.8137 15.1883 11.902 15.1883C11.9927 15.1897 12.1638 15.2119 12.3041 15.3707C12.9629 16.1146 13.5872 16.7377 14.2131 17.2759C14.9483 17.9071 16.0856 18.7481 17.4667 18.7641C18.4448 18.774 19.4146 18.2716 19.9478 17.4797C20.0009 17.4008 20.1307 17.377 20.2365 17.4264C23.6029 18.9996 27.2992 19.9386 30.9255 20.1421C31.973 20.201 32.8686 20.9483 33.1035 21.9588C33.3504 23.0256 33.5195 24.1682 33.6059 25.3569C33.6532 25.9908 33.6772 26.6552 33.6772 27.3318C33.6772 28.6293 33.4648 29.8942 33.0457 31.0916C31.7326 34.8457 28.7939 37.0882 26.8429 38.218C26.3459 37.8505 25.747 37.6519 25.1177 37.6519H15.8439L17.1089 35.8444C17.4673 35.3344 17.6456 34.7358 17.6249 34.1202C17.6019 33.2246 17.1724 32.409 16.4477 31.8832L16.405 31.852C15.7661 31.3886 14.9869 31.202 14.211 31.3262C13.4388 31.4501 12.7616 31.8677 12.3038 32.5023C11.973 32.961 11.3248 33.859 10.5538 34.9269C9.55629 33.7508 8.80957 32.4647 8.32945 31.0915C7.65281 29.1586 7.61508 27.4226 7.76941 25.3555C7.85789 24.1417 8.03332 22.9733 8.29078 21.883C8.40234 21.4106 8.10984 20.9372 7.63734 20.8256C7.16496 20.7141 6.69152 21.0066 6.57996 21.4791C6.35953 22.4126 6.19582 23.3968 6.08941 24.4127H4.5375C4.30922 24.4127 4.08633 24.4354 3.87 24.4772L3.6723 17.6446C3.59402 14.9202 5.37762 12.5364 8.00965 11.8474C8.23828 11.7875 8.43328 11.6381 8.55047 11.4328C10.5785 7.87852 14.3768 5.6707 18.4629 5.6707H22.3922C30.2439 5.6707 36.6316 12.0585 36.6316 19.9102V24.4481C36.4696 24.4252 36.3042 24.4125 36.1359 24.4125ZM54.7922 21.3422C55.9391 21.3422 56.8723 20.4091 56.8723 19.2621V3.83789C56.8723 2.69086 55.9385 1.75781 54.7909 1.75781H39.3668C38.2199 1.75781 37.2867 2.69086 37.2867 3.83789V14.0732C37.9982 15.8824 38.3893 17.8514 38.3893 19.9102V21.098C38.6873 21.2579 39.019 21.3422 39.3668 21.3422H42.1348C43.4239 21.3422 44.4727 22.391 44.4727 23.6801V25.215L46.7925 22.2259C47.2296 21.664 47.8873 21.3422 48.5977 21.3422H54.7922ZM43.0039 8.36941C43.0039 6.12211 44.8321 4.29387 47.0794 4.29387C49.3266 4.29387 51.1549 6.12211 51.1549 8.36941C51.1549 10.5086 49.4981 12.2681 47.4005 12.4324V14.573C47.4005 15.0584 47.0071 15.4519 46.5216 15.4519C46.0361 15.4519 45.6427 15.0584 45.6427 14.573V11.5661C45.6427 11.0807 46.0361 10.6871 46.5216 10.6871H47.0794C48.3574 10.6871 49.3971 9.64746 49.3971 8.36941C49.3971 7.09137 48.3574 6.05168 47.0794 6.05168C45.8014 6.05168 44.7618 7.09137 44.7618 8.36941C44.7618 8.8548 44.3684 9.24832 43.8829 9.24832C43.3973 9.24832 43.0039 8.8548 43.0039 8.36941ZM45.6427 17.67C45.6427 17.1846 46.0361 16.7911 46.5216 16.7911C47.007 16.7911 47.4005 17.1846 47.4005 17.67V17.9275C47.4005 18.4129 47.0071 18.8064 46.5216 18.8064C46.0361 18.8064 45.6427 18.4129 45.6427 17.9275V17.67ZM17.1253 27.3232C17.1253 27.8086 16.7318 28.2021 16.2464 28.2021C15.761 28.2021 15.3675 27.8086 15.3675 27.3232V26.3419C15.3675 25.8565 15.761 25.463 16.2464 25.463C16.7318 25.463 17.1253 25.8565 17.1253 26.3419V27.3232ZM29.3804 28.2021C29.8659 28.2021 30.2593 27.8086 30.2593 27.3232V26.3419C30.2593 25.8565 29.8659 25.463 29.3804 25.463C28.895 25.463 28.5015 25.8565 28.5015 26.3419V27.3232C28.5015 27.8086 28.895 28.2021 29.3804 28.2021ZM24.8102 32.5264C23.6119 31.8274 22.4959 31.8274 21.2975 32.5264C20.8784 32.771 20.34 32.6295 20.0954 32.21C19.8509 31.7909 19.9925 31.2526 20.4118 31.008C22.1402 29.9998 23.9674 29.9998 25.6958 31.008C26.1151 31.2526 26.2568 31.7907 26.0122 32.21C25.8489 32.49 25.5546 32.6462 25.2523 32.6462C25.1018 32.6463 24.9495 32.6077 24.8102 32.5264Z" fill="white"/>
</mask>
<g mask="url(#mask0_9764_174328)">
<rect x="-2.54688" y="-1.73096" width="66" height="65" fill="#00C5CA"/>
</g>
</svg>
