<svg width="60" height="60" viewBox="0 0 60 60" fill="none" xmlns="http://www.w3.org/2000/svg">
<g clip-path="url(#clip0_7815_144454)">
<path fill-rule="evenodd" clip-rule="evenodd" d="M42.399 0.265503C42.172 0.0260927 41.8612 -0.117188 41.5384 -0.117188H22.2359C19.0567 -0.117188 16.4031 2.21329 15.8771 5.24918C13.2001 5.71565 11.0962 7.83097 10.6302 10.4965C7.53479 10.9744 5.15625 13.6638 5.15625 16.8906V53.3927C5.15625 56.9546 8.0365 59.8829 11.5984 59.8829H37.7976C40.9768 59.8829 43.6185 57.5639 44.1564 54.528C46.8934 54.11 49.0687 51.9585 49.5347 49.2335C52.5706 48.7075 54.8772 46.0543 54.8772 42.8628V13.8909C54.8772 13.58 54.7697 13.2811 54.5545 13.0541L42.399 0.265503ZM42.6861 4.10203L50.9093 12.6718H45.6025C44.0246 12.6718 42.6861 11.4047 42.6861 9.82683V4.10203ZM37.7976 57.4925H11.5984C9.3512 57.4925 7.5467 55.6399 7.5467 53.3927V16.891C7.5467 15.0261 8.74192 13.4487 10.5345 12.9708V48.1339C10.5345 51.6958 13.4152 54.6241 16.9766 54.6241H41.6822C41.1681 56.2972 39.6264 57.4925 37.7976 57.4925ZM43.1763 52.2337H16.9766C14.7418 52.2337 12.925 50.3811 12.925 48.1339V11.6318C12.925 9.80302 14.1202 8.26127 15.7933 7.7472V42.8751C15.7933 46.4365 18.674 49.3648 22.2359 49.3648H47.0605C46.5468 51.0384 45.0046 52.2337 43.1763 52.2337ZM48.4351 46.9744H22.2359C20.0006 46.9744 18.1842 45.1218 18.1842 42.8747V6.37299C18.1842 4.13773 19.9887 2.27326 22.2359 2.27326H40.2956V9.82683C40.2956 12.7313 42.698 15.0623 45.6025 15.0623H52.4868V42.8747C52.4868 45.1218 50.6823 46.9744 48.4351 46.9744ZM45.1722 39.3252H25.4988C24.8415 39.3252 24.3036 39.8631 24.3036 40.5204C24.3036 41.1778 24.8415 41.7156 25.4988 41.7156H45.1841C45.8414 41.7156 46.3793 41.1778 46.3793 40.5204C46.3793 39.8631 45.8414 39.3252 45.1722 39.3252ZM34.0805 20.5719L29.1802 25.8669C28.738 26.3448 27.9968 26.381 27.5066 25.9269C27.0168 25.4847 27.0049 24.7193 27.459 24.2414L34.4628 16.7235C34.6903 16.4846 35.0006 16.3408 35.3353 16.3408C35.6703 16.3408 35.9807 16.4846 36.2078 16.7235L43.2001 24.2414C43.6542 24.7193 43.6185 25.4723 43.1401 25.9269C42.9012 26.142 42.6023 26.2496 42.3157 26.2496C42.0049 26.2496 41.6703 26.1178 41.4313 25.8669L36.471 20.5719V33.6242C36.471 34.2815 35.9331 34.8194 35.2757 34.8194C34.6184 34.8194 34.0805 34.2815 34.0805 33.6242V20.5719Z" fill="#00C5CA"/>
</g>
<defs>
<clipPath id="clip0_7815_144454">
<rect width="60" height="60" fill="white"/>
</clipPath>
</defs>
</svg>
